# xmcd CD database file
#
# Track frame offsets:
#	150
#	25596
#	43743
#	63670
#	83742
#	105559
#	130928
#	155138
#	177619
#
# Disc length: 2705 seconds
#
# Revision: 0
# Processed by: cddbd v1.5.2PL0 Copyright (c) Steve Scherf et al.
# Submitted via: CDex 1.51
#
DISCID=770a8f09
DTITLE=SPYRO GYRA - Rites of summer
DYEAR=1988
DGENRE=Jazz
TTITLE0=01 - Claire's Dream
TTITLE1=02 - Daddy's Got A New Girl Now
TTITLE2=03 - Limelight
TTITLE3=04 - Shanghai Gumbo
TTITLE4=05 - Innocent Soul
TTITLE5=06 - No Man's Land
TTITLE6=07 - Yosemite
TTITLE7=08 - The Archer
TTITLE8=09 - Captain Karma
EXTD=YEAR: 1988
EXTT0=
EXTT1=
EXTT2=
EXTT3=
EXTT4=
EXTT5=
EXTT6=
EXTT7=
EXTT8=
PLAYORDER=
